#!OML:ASF H:\Dans Jumps\Project 1\Capture day 1\Session 1\subject.ASF
:FULLY-SPECIFIED
:DEGREES
722
root 0.348705 17.5148 -8.47575 8.71423 -0.858187 -1.77059
lowerback 5.04457 -0.450574 -1.15776
upperback 5.40723 -0.661293 1.57387
thorax 2.77652 -0.402103 2.28706
lowerneck -13.7179 -1.06029 -2.30988
upperneck 26.2579 -1.33805 1.49095
head 10.7291 -0.663768 0.753061
rclavicle 4.00054e-015 -7.10655e-015
rhumerus -19.9369 -4.76992 -84.6157
rradius 27.0235
rwrist 27.2261
rhand -18.7446 -25.6544
rfingers 7.12502
rthumb 7.55169 -55.4996
lclavicle 4.00054e-015 -7.10655e-015
lhumerus -18.1174 -10.2746 92.2296
lradius 20.3855
lwrist 10.903
lhand -26.8647 -3.57431
lfingers 7.12502
lthumb -0.289419 26.4052
rfemur -25.4804 -3.96477 20.0358
rtibia 31.2445
rfoot -12.0491 -1.96529
rtoes 15.775
lfemur -24.4557 6.10396 -18.2997
ltibia 28.6293
lfoot -10.9657 5.42923
ltoes 7.66478
723
root 0.364249 17.5224 -8.48983 8.63975 -0.949186 -1.79342
lowerback 4.96779 -0.464551 -1.21285
upperback 5.35333 -0.680616 1.56273
thorax 2.76487 -0.412866 2.30638
lowerneck -13.6557 -1.11986 -2.35056
upperneck 26.0644 -1.426 1.5423
head 10.6479 -0.701915 0.76629
rclavicle -8.17502e-015 1.60519e-014
rhumerus -19.9536 -4.85769 -84.6089
rradius 27.0535
rwrist 27.1976
rhand -18.7738 -25.6599
rfingers 7.12502
rthumb 7.52347 -55.5061
lclavicle -8.17502e-015 1.60519e-014
lhumerus -18.0911 -10.2605 92.2089
lradius 20.4425
lwrist 10.8163
lhand -26.8532 -3.7011
lfingers 7.12502
lthumb -0.278306 26.2785
rfemur -25.3381 -3.88399 19.99
rtibia 31.0077
rfoot -11.8537 -1.93909
rtoes 15.8075
lfemur -24.2666 6.09053 -18.3139
ltibia 28.3516
lfoot -10.8185 5.45496
ltoes 7.85215
724
root 0.380339 17.5301 -8.50564 8.578 -1.05172 -1.81437
lowerback 4.89232 -0.47773 -1.27069
upperback 5.29893 -0.698844 1.54861
thorax 2.75195 -0.423076 2.32414
lowerneck -13.5821 -1.18022 -2.39305
upperneck 25.8523 -1.51621 1.60007
head 10.558 -0.740652 0.781855
rclavicle -1.59773e-014 1.23246e-014
rhumerus -19.9632 -4.95036 -84.606
rradius 27.0857
rwrist 27.185
rhand -18.7774 -25.6756
rfingers 7.12502
rthumb 7.51997 -55.5219
lclavicle -1.59773e-014 1.23246e-014
lhumerus -18.0537 -10.2453 92.18
lradius 20.504
lwrist 10.7541
lhand -26.8977 -3.93672
lfingers 7.12502
lthumb -0.321253 26.0428
rfemur -25.2197 -3.79374 19.9405
rtibia 30.7734
rfoot -11.6477 -1.90964
rtoes 15.832
lfemur -24.0922 6.07992 -18.3326
ltibia 28.0669
lfoot -10.6652 5.47886
ltoes 8.05334
725
root 0.397048 17.5378 -8.52326 8.52873 -1.16929 -1.83338
lowerback 4.81977 -0.488907 -1.32963
upperback 5.24353 -0.714328 1.53067
thorax 2.73622 -0.431816 2.33852
lowerneck -13.509 -1.24047 -2.42915
upperneck 25.6325 -1.60665 1.65466
head 10.4658 -0.779371 0.795193
rclavicle 1.62506e-014 -1.6201e-014
rhumerus -19.97 -5.04093 -84.6092
rradius 27.1251
rwrist 27.1701
rhand -18.7768 -25.6942
rfingers 7.12502
rthumb 7.5206 -55.5405
lclavicle 1.62506e-014 -1.6201e-014
lhumerus -18.0085 -10.2279 92.1423
lradius 20.5727
lwrist 10.718
lhand -26.9845 -4.24239
lfingers 7.12502
lthumb -0.405088 25.737
rfemur -25.1255 -3.6954 19.8874
rtibia 30.5414
rfoot -11.4308 -1.87219
rtoes 15.8635
lfemur -23.9328 6.07011 -18.3553
ltibia 27.7756
lfoot -10.5027 5.50754
ltoes 8.2449
726
root 0.414309 17.5456 -8.54245 8.48874 -1.30237 -1.85213
lowerback 4.75226 -0.497952 -1.38975
upperback 5.18922 -0.726958 1.51042
thorax 2.7187 -0.439094 2.35116
lowerneck -13.443 -1.30024 -2.45236
upperneck 25.4019 -1.69522 1.69514
head 10.3712 -0.817738 0.801562
rclavicle -1.12872e-014 1.98909e-014
rhumerus -19.9754 -5.11787 -84.6186
rradius 27.1786
rwrist 27.1452
rhand -18.7892 -25.7189
rfingers 7.12502
rthumb 7.50865 -55.5656
lclavicle -1.12872e-014 1.98909e-014
lhumerus -17.9533 -10.1991 92.0946
lradius 20.6447
lwrist 10.703
lhand -27.0823 -4.55624
lfingers 7.12502
lthumb -0.499599 25.4229
rfemur -25.0509 -3.58761 19.8322
rtibia 30.3106
rfoot -11.2024 -1.82726
rtoes 15.8966
lfemur -23.784 6.06047 -18.3789
ltibia 27.4772
lfoot -10.3306 5.54257
ltoes 8.43215
727
root 0.432009 17.5533 -8.56331 8.45688 -1.45024 -1.86847
lowerback 4.69155 -0.505316 -1.45405
upperback 5.13576 -0.737418 1.48733
thorax 2.69821 -0.445322 2.36322
lowerneck -13.3908 -1.35802 -2.45828
upperneck 25.1674 -1.7803 1.71954
head 10.2779 -0.854797 0.799753
rclavicle -2.29845e-015 -2.71776e-016
rhumerus -19.9768 -5.18544 -84.6352
rradius 27.2387
rwrist 27.113
rhand -18.8156 -25.7432
rfingers 7.12502
rthumb 7.48317 -55.5909
lclavicle -2.29845e-015 -2.71776e-016
lhumerus -17.8909 -10.1583 92.0363
lradius 20.7233
lwrist 10.7126
lhand -27.1627 -4.80027
lfingers 7.12502
lthumb -0.57726 25.1787
rfemur -24.9952 -3.47006 19.773
rtibia 30.0807
rfoot -10.9628 -1.77754
rtoes 15.9378
lfemur -23.6451 6.04773 -18.4046
ltibia 27.1705
lfoot -10.1463 5.58689
ltoes 8.61295
728
root 0.450166 17.5613 -8.58561 8.43206 -1.61192 -1.88124
lowerback 4.63458 -0.511301 -1.5227
upperback 5.08491 -0.746111 1.46158
thorax 2.67832 -0.450761 2.37498
lowerneck -13.3393 -1.41696 -2.46229
upperneck 24.9152 -1.86642 1.74202
head 10.1788 -0.892496 0.796879
rclavicle 8.19366e-015 -5.479e-015
rhumerus -19.9678 -5.24825 -84.6585
rradius 27.2971
rwrist 27.074
rhand -18.8752 -25.7594
rfingers 7.12502
rthumb 7.42562 -55.6091
lclavicle 8.19366e-015 -5.479e-015
lhumerus -17.8255 -10.095 91.9675
lradius 20.8127
lwrist 10.7388
lhand -27.2203 -4.96815
lfingers 7.12502
lthumb -0.632873 25.0107
rfemur -24.9559 -3.34864 19.7091
rtibia 29.8518
rfoot -10.7147 -1.71848
rtoes 16.0001
lfemur -23.5138 6.03331 -18.4342
ltibia 26.8547
lfoot -9.94954 5.63876
ltoes 8.78357
